# xmcd
#
# Track frame offsets:
#	150
#	1956
#	17259
#	38657
#	57957
#	71743
#
# Disc length: 1216 seconds
#
# Revision: 0
# Processed by: cddbd v1.5.1PL0 Copyright (c) Steve Scherf et al.
# Submitted via: dBpowerAMP V4.0
#
DISCID=3e04be06
DTITLE=T4 - Donde me Guies Señor
DYEAR=2004
DGENRE=Christian R&B
TTITLE0=Saludo y promo de T4
TTITLE1=Vivire para Adorar
TTITLE2=A Cristo Seguire
TTITLE3=Donde me guies Señor
TTITLE4=En la Calma
TTITLE5=Solo los necios
EXTD=T4 Demo CD Donde me Guies Señor
EXTT0=
EXTT1=
EXTT2=
EXTT3=
EXTT4=
EXTT5=
PLAYORDER=
